# xmcd
#
# Track frame offsets:
#	150
#	12588
#	28385
#	41296
#	52775
#	69075
#	82063
#	96450
#	113689
#	126550
#	141840
#	156717
#
# Disc length: 2231 seconds
#
# Revision: 0
# Processed by: cddbd v1.5PL3 Copyright (c) Steve Scherf et al.
# Submitted via: dBpowerAMP V4.0
#
DISCID=a908b50c
DTITLE=Johnny Shines - Skull and Crossbone Blues
DYEAR=2003
DGENRE=Blues
TTITLE0=Give My Heart a Break
TTITLE1=Johnny's Walkin' Blues
TTITLE2=Skull and Crossbone Blues
TTITLE3=What Kind of Little Girl Are You?
TTITLE4=My Black Mare
TTITLE5=Standing at the Crossroads
TTITLE6=Rollin' and Tumblin'
TTITLE7=Trouble Is All I See
TTITLE8=Fat Mama
TTITLE9=Drunken Man's Prayer
TTITLE10=Two Trains Runnin'
TTITLE11=You Don't Have To Go
EXTD=
EXTT0=
EXTT1=
EXTT2=
EXTT3=
EXTT4=
EXTT5=
EXTT6=
EXTT7=
EXTT8=
EXTT9=
EXTT10=
EXTT11=
PLAYORDER=
